<svg width="59" height="59" viewBox="0 0 59 59" fill="none" xmlns="http://www.w3.org/2000/svg">
<path d="M32.9663 29.5L48.4538 14.0371C48.9167 13.5742 49.1767 12.9463 49.1767 12.2917C49.1767 11.637 48.9167 11.0092 48.4538 10.5462C47.9908 10.0833 47.363 9.82327 46.7083 9.82327C46.0537 9.82327 45.4258 10.0833 44.9629 10.5462L29.5 26.0337L14.0371 10.5462C13.5742 10.0833 12.9463 9.82327 12.2917 9.82327C11.637 9.82327 11.0092 10.0833 10.5463 10.5462C10.0833 11.0092 9.82329 11.637 9.82329 12.2917C9.82329 12.9463 10.0833 13.5742 10.5463 14.0371L26.0338 29.5L10.5463 44.9629C10.3158 45.1914 10.133 45.4633 10.0082 45.7629C9.88335 46.0625 9.81909 46.3838 9.81909 46.7083C9.81909 47.0329 9.88335 47.3542 10.0082 47.6537C10.133 47.9533 10.3158 48.2252 10.5463 48.4537C10.7748 48.6842 11.0467 48.867 11.3463 48.9919C11.6458 49.1167 11.9672 49.1809 12.2917 49.1809C12.6162 49.1809 12.9375 49.1167 13.2371 48.9919C13.5367 48.867 13.8086 48.6842 14.0371 48.4537L29.5 32.9662L44.9629 48.4537C45.1915 48.6842 45.4634 48.867 45.7629 48.9919C46.0625 49.1167 46.3838 49.1809 46.7083 49.1809C47.0329 49.1809 47.3542 49.1167 47.6538 48.9919C47.9533 48.867 48.2252 48.6842 48.4538 48.4537C48.6842 48.2252 48.8671 47.9533 48.9919 47.6537C49.1167 47.3542 49.1809 47.0329 49.1809 46.7083C49.1809 46.3838 49.1167 46.0625 48.9919 45.7629C48.8671 45.4633 48.6842 45.1914 48.4538 44.9629L32.9663 29.5Z" fill="white"/>
</svg>
