<svg width="236" height="45" viewBox="0 0 236 45" fill="none" xmlns="http://www.w3.org/2000/svg">
<path d="M1.104 10.2H4.944L7.2 26.136H7.488L9.744 10.2H13.584V27H11.712V11.064H11.424L9.168 27H5.52L3.264 11.064H2.976V27H1.104V10.2Z" fill="url(#paint0_linear_10_25)"/>
<path d="M25.4233 24.984H25.1353C24.7513 25.784 24.2153 26.376 23.5273 26.76C22.8553 27.144 22.1433 27.336 21.3913 27.336C20.6073 27.336 19.8793 27.208 19.2073 26.952C18.5353 26.68 17.9433 26.288 17.4313 25.776C16.9353 25.248 16.5433 24.608 16.2553 23.856C15.9673 23.104 15.8233 22.232 15.8233 21.24V20.856C15.8233 19.88 15.9673 19.016 16.2553 18.264C16.5433 17.512 16.9353 16.88 17.4313 16.368C17.9433 15.84 18.5353 15.44 19.2073 15.168C19.8793 14.896 20.5913 14.76 21.3433 14.76C22.1593 14.76 22.8953 14.944 23.5513 15.312C24.2233 15.664 24.7513 16.216 25.1353 16.968H25.4233V15.096H27.2953V24.552C27.2953 25.032 27.5113 25.272 27.9433 25.272H28.5433V27H27.2713C26.7273 27 26.2793 26.824 25.9273 26.472C25.5913 26.12 25.4233 25.672 25.4233 25.128V24.984ZM21.5833 25.56C22.1433 25.56 22.6553 25.456 23.1193 25.248C23.5993 25.04 24.0073 24.744 24.3433 24.36C24.6793 23.976 24.9433 23.52 25.1353 22.992C25.3273 22.448 25.4233 21.848 25.4233 21.192V20.904C25.4233 20.264 25.3273 19.68 25.1353 19.152C24.9433 18.608 24.6713 18.144 24.3193 17.76C23.9833 17.376 23.5753 17.08 23.0953 16.872C22.6313 16.648 22.1273 16.536 21.5833 16.536C21.0233 16.536 20.5113 16.64 20.0473 16.848C19.5833 17.056 19.1753 17.352 18.8233 17.736C18.4873 18.104 18.2233 18.56 18.0313 19.104C17.8393 19.632 17.7433 20.216 17.7433 20.856V21.24C17.7433 22.6 18.0953 23.664 18.7993 24.432C19.5193 25.184 20.4473 25.56 21.5833 25.56ZM30.8066 15.096H35.1266V16.68H35.4146C35.7186 16.024 36.1506 15.544 36.7106 15.24C37.2706 14.92 37.9106 14.76 38.6306 14.76C39.8306 14.76 40.7986 15.152 41.5346 15.936C42.2706 16.72 42.6626 17.864 42.7106 19.368L40.7426 19.656C40.7426 18.552 40.4786 17.76 39.9506 17.28C39.4226 16.784 38.7746 16.536 38.0066 16.536C37.5106 16.536 37.0786 16.632 36.7106 16.824C36.3586 17.016 36.0626 17.28 35.8226 17.616C35.5826 17.952 35.4066 18.344 35.2946 18.792C35.1826 19.24 35.1266 19.72 35.1266 20.232V25.272H38.1506V27H30.5186V25.272H33.2546V16.824H30.8066V15.096ZM49.8699 11.544C49.8699 11.08 50.0299 10.688 50.3499 10.368C50.6859 10.032 51.0859 9.864 51.5499 9.864C52.0139 9.864 52.4059 10.032 52.7259 10.368C53.0619 10.688 53.2299 11.08 53.2299 11.544C53.2299 12.008 53.0619 12.408 52.7259 12.744C52.4059 13.064 52.0139 13.224 51.5499 13.224C51.0859 13.224 50.6859 13.064 50.3499 12.744C50.0299 12.408 49.8699 12.008 49.8699 11.544ZM46.4619 25.272H50.6379V16.824H46.8939V15.096H52.5099V25.272H56.3979V27H46.4619V25.272ZM69.5093 24.984H69.2213C68.8373 25.784 68.3013 26.376 67.6133 26.76C66.9413 27.144 66.2293 27.336 65.4773 27.336C64.6933 27.336 63.9653 27.208 63.2933 26.952C62.6213 26.68 62.0293 26.288 61.5173 25.776C61.0213 25.248 60.6293 24.608 60.3413 23.856C60.0533 23.104 59.9093 22.232 59.9093 21.24V20.856C59.9093 19.88 60.0533 19.016 60.3413 18.264C60.6293 17.512 61.0213 16.88 61.5173 16.368C62.0293 15.84 62.6213 15.44 63.2933 15.168C63.9653 14.896 64.6773 14.76 65.4293 14.76C66.2453 14.76 66.9813 14.944 67.6373 15.312C68.3093 15.664 68.8373 16.216 69.2213 16.968H69.5093V15.096H71.3813V24.552C71.3813 25.032 71.5973 25.272 72.0293 25.272H72.6293V27H71.3573C70.8133 27 70.3653 26.824 70.0133 26.472C69.6773 26.12 69.5093 25.672 69.5093 25.128V24.984ZM65.6693 25.56C66.2293 25.56 66.7413 25.456 67.2053 25.248C67.6853 25.04 68.0933 24.744 68.4293 24.36C68.7653 23.976 69.0293 23.52 69.2213 22.992C69.4133 22.448 69.5093 21.848 69.5093 21.192V20.904C69.5093 20.264 69.4133 19.68 69.2213 19.152C69.0293 18.608 68.7573 18.144 68.4053 17.76C68.0693 17.376 67.6613 17.08 67.1813 16.872C66.7173 16.648 66.2133 16.536 65.6693 16.536C65.1093 16.536 64.5973 16.64 64.1333 16.848C63.6693 17.056 63.2613 17.352 62.9093 17.736C62.5733 18.104 62.3093 18.56 62.1173 19.104C61.9253 19.632 61.8293 20.216 61.8293 20.856V21.24C61.8293 22.6 62.1813 23.664 62.8853 24.432C63.6053 25.184 64.5333 25.56 65.6693 25.56ZM113.595 24.984H113.307C112.923 25.784 112.387 26.376 111.699 26.76C111.027 27.144 110.315 27.336 109.563 27.336C108.779 27.336 108.051 27.208 107.379 26.952C106.707 26.68 106.115 26.288 105.603 25.776C105.107 25.248 104.715 24.608 104.427 23.856C104.139 23.104 103.995 22.232 103.995 21.24V20.856C103.995 19.88 104.139 19.016 104.427 18.264C104.715 17.512 105.107 16.88 105.603 16.368C106.115 15.84 106.707 15.44 107.379 15.168C108.051 14.896 108.763 14.76 109.515 14.76C110.331 14.76 111.067 14.944 111.723 15.312C112.395 15.664 112.923 16.216 113.307 16.968H113.595V15.096H115.467V24.552C115.467 25.032 115.683 25.272 116.115 25.272H116.715V27H115.443C114.899 27 114.451 26.824 114.099 26.472C113.763 26.12 113.595 25.672 113.595 25.128V24.984ZM109.755 25.56C110.315 25.56 110.827 25.456 111.291 25.248C111.771 25.04 112.179 24.744 112.515 24.36C112.851 23.976 113.115 23.52 113.307 22.992C113.499 22.448 113.595 21.848 113.595 21.192V20.904C113.595 20.264 113.499 19.68 113.307 19.152C113.115 18.608 112.843 18.144 112.491 17.76C112.155 17.376 111.747 17.08 111.267 16.872C110.803 16.648 110.299 16.536 109.755 16.536C109.195 16.536 108.683 16.64 108.219 16.848C107.755 17.056 107.347 17.352 106.995 17.736C106.659 18.104 106.395 18.56 106.203 19.104C106.011 19.632 105.915 20.216 105.915 20.856V21.24C105.915 22.6 106.267 23.664 106.971 24.432C107.691 25.184 108.619 25.56 109.755 25.56ZM119.651 25.272H123.971V11.928H119.795V10.2H125.843V25.272H130.163V27H119.651V25.272ZM137.418 20.04H137.826L142.362 15.096H144.666V15.24L139.722 20.688V21.12L145.242 26.856V27H142.938L137.874 21.768H137.418V27H135.546V10.2H137.418V20.04ZM152.737 11.544C152.737 11.08 152.897 10.688 153.217 10.368C153.553 10.032 153.953 9.864 154.417 9.864C154.881 9.864 155.273 10.032 155.593 10.368C155.929 10.688 156.097 11.08 156.097 11.544C156.097 12.008 155.929 12.408 155.593 12.744C155.273 13.064 154.881 13.224 154.417 13.224C153.953 13.224 153.553 13.064 153.217 12.744C152.897 12.408 152.737 12.008 152.737 11.544ZM149.329 25.272H153.505V16.824H149.761V15.096H155.377V25.272H159.265V27H149.329V25.272ZM165.104 21.624C165.152 22.808 165.52 23.76 166.208 24.48C166.896 25.2 167.856 25.56 169.088 25.56C169.648 25.56 170.136 25.496 170.552 25.368C170.968 25.24 171.32 25.064 171.608 24.84C171.912 24.616 172.152 24.36 172.328 24.072C172.52 23.768 172.672 23.448 172.784 23.112L174.56 23.592C174.224 24.696 173.6 25.6 172.688 26.304C171.792 26.992 170.576 27.336 169.04 27.336C168.192 27.336 167.408 27.192 166.688 26.904C165.984 26.6 165.376 26.176 164.864 25.632C164.352 25.088 163.952 24.44 163.664 23.688C163.376 22.936 163.232 22.104 163.232 21.192V20.616C163.232 19.784 163.376 19.008 163.664 18.288C163.968 17.568 164.384 16.952 164.912 16.44C165.44 15.912 166.056 15.504 166.76 15.216C167.48 14.912 168.256 14.76 169.088 14.76C170.064 14.76 170.904 14.944 171.608 15.312C172.328 15.664 172.912 16.104 173.36 16.632C173.824 17.16 174.16 17.736 174.368 18.36C174.592 18.984 174.704 19.56 174.704 20.088V21.624H165.104ZM169.088 16.536C168.56 16.536 168.064 16.624 167.6 16.8C167.152 16.96 166.752 17.192 166.4 17.496C166.064 17.8 165.784 18.16 165.56 18.576C165.352 18.976 165.216 19.416 165.152 19.896H172.832C172.8 19.384 172.672 18.92 172.448 18.504C172.24 18.088 171.96 17.736 171.608 17.448C171.272 17.16 170.88 16.936 170.432 16.776C170 16.616 169.552 16.536 169.088 16.536ZM188.728 27H185.272L183.832 15.96H183.544L182.104 27H178.648L176.776 15.096H178.696L180.28 26.136H180.568L181.96 15.096H185.416L186.808 26.136H187.096L188.68 15.096H190.6L188.728 27ZM196.823 11.544C196.823 11.08 196.983 10.688 197.303 10.368C197.639 10.032 198.039 9.864 198.503 9.864C198.967 9.864 199.359 10.032 199.679 10.368C200.015 10.688 200.183 11.08 200.183 11.544C200.183 12.008 200.015 12.408 199.679 12.744C199.359 13.064 198.967 13.224 198.503 13.224C198.039 13.224 197.639 13.064 197.303 12.744C196.983 12.408 196.823 12.008 196.823 11.544ZM193.415 25.272H197.591V16.824H193.847V15.096H199.463V25.272H203.351V27H193.415V25.272ZM218.958 22.776C218.83 23.432 218.606 24.04 218.286 24.6C217.982 25.16 217.59 25.648 217.11 26.064C216.63 26.464 216.07 26.776 215.43 27C214.79 27.224 214.078 27.336 213.294 27.336C212.462 27.336 211.67 27.2 210.918 26.928C210.182 26.656 209.534 26.264 208.974 25.752C208.414 25.224 207.966 24.584 207.63 23.832C207.31 23.08 207.15 22.216 207.15 21.24V20.952C207.15 19.992 207.31 19.128 207.63 18.36C207.966 17.592 208.414 16.944 208.974 16.416C209.534 15.888 210.182 15.48 210.918 15.192C211.67 14.904 212.462 14.76 213.294 14.76C214.046 14.76 214.742 14.872 215.382 15.096C216.022 15.32 216.582 15.64 217.062 16.056C217.558 16.456 217.958 16.936 218.262 17.496C218.582 18.056 218.798 18.664 218.91 19.32L217.038 19.752C216.99 19.336 216.87 18.936 216.678 18.552C216.502 18.152 216.254 17.808 215.934 17.52C215.63 17.216 215.254 16.976 214.806 16.8C214.358 16.624 213.838 16.536 213.246 16.536C212.67 16.536 212.126 16.648 211.614 16.872C211.118 17.08 210.678 17.384 210.294 17.784C209.91 18.168 209.606 18.632 209.382 19.176C209.174 19.72 209.07 20.312 209.07 20.952V21.24C209.07 21.912 209.174 22.52 209.382 23.064C209.606 23.592 209.91 24.04 210.294 24.408C210.678 24.776 211.126 25.064 211.638 25.272C212.15 25.464 212.702 25.56 213.294 25.56C213.886 25.56 214.398 25.472 214.83 25.296C215.278 25.104 215.654 24.864 215.958 24.576C216.278 24.272 216.526 23.928 216.702 23.544C216.894 23.16 217.022 22.76 217.086 22.344L218.958 22.776ZM232.982 25.272V27H222.614V24.024L231.11 17.112V16.824H222.758V15.096H232.694V17.976L224.15 24.984V25.272H232.982Z" fill="white"/>
<path d="M89.9239 10.2H91.9399V17.64H99.0919V10.2H101.108V27H99.0919V19.512H91.9399V27H89.9239V10.2Z" fill="url(#paint1_radial_10_25)"/>
<path d="M82.14 32.6H87.3V33.536H83.148V36.32H87.228V37.256H83.148V41H82.14V32.6ZM89.0557 35.048H91.2157V35.84H91.3597C91.5117 35.512 91.7277 35.272 92.0077 35.12C92.2877 34.96 92.6077 34.88 92.9677 34.88C93.5677 34.88 94.0517 35.076 94.4197 35.468C94.7877 35.86 94.9837 36.432 95.0077 37.184L94.0237 37.328C94.0237 36.776 93.8917 36.38 93.6277 36.14C93.3637 35.892 93.0397 35.768 92.6557 35.768C92.4077 35.768 92.1917 35.816 92.0077 35.912C91.8317 36.008 91.6837 36.14 91.5637 36.308C91.4437 36.476 91.3557 36.672 91.2997 36.896C91.2437 37.12 91.2157 37.36 91.2157 37.616V40.136H92.7277V41H88.9117V40.136H90.2797V35.912H89.0557V35.048ZM97.4233 38.312C97.4473 38.904 97.6313 39.38 97.9753 39.74C98.3193 40.1 98.7993 40.28 99.4153 40.28C99.6953 40.28 99.9393 40.248 100.147 40.184C100.355 40.12 100.531 40.032 100.675 39.92C100.827 39.808 100.947 39.68 101.035 39.536C101.131 39.384 101.207 39.224 101.263 39.056L102.151 39.296C101.983 39.848 101.671 40.3 101.215 40.652C100.767 40.996 100.159 41.168 99.3913 41.168C98.9673 41.168 98.5753 41.096 98.2153 40.952C97.8633 40.8 97.5593 40.588 97.3033 40.316C97.0473 40.044 96.8473 39.72 96.7033 39.344C96.5593 38.968 96.4873 38.552 96.4873 38.096V37.808C96.4873 37.392 96.5593 37.004 96.7033 36.644C96.8553 36.284 97.0633 35.976 97.3273 35.72C97.5913 35.456 97.8993 35.252 98.2513 35.108C98.6113 34.956 98.9993 34.88 99.4153 34.88C99.9033 34.88 100.323 34.972 100.675 35.156C101.035 35.332 101.327 35.552 101.551 35.816C101.783 36.08 101.951 36.368 102.055 36.68C102.167 36.992 102.223 37.28 102.223 37.544V38.312H97.4233ZM99.4153 35.768C99.1513 35.768 98.9033 35.812 98.6713 35.9C98.4473 35.98 98.2473 36.096 98.0713 36.248C97.9033 36.4 97.7633 36.58 97.6513 36.788C97.5473 36.988 97.4793 37.208 97.4473 37.448H101.287C101.271 37.192 101.207 36.96 101.095 36.752C100.991 36.544 100.851 36.368 100.675 36.224C100.507 36.08 100.311 35.968 100.087 35.888C99.8713 35.808 99.6473 35.768 99.4153 35.768ZM104.771 38.312C104.795 38.904 104.979 39.38 105.323 39.74C105.667 40.1 106.147 40.28 106.763 40.28C107.043 40.28 107.287 40.248 107.495 40.184C107.703 40.12 107.879 40.032 108.023 39.92C108.175 39.808 108.295 39.68 108.383 39.536C108.479 39.384 108.555 39.224 108.611 39.056L109.499 39.296C109.331 39.848 109.019 40.3 108.563 40.652C108.115 40.996 107.507 41.168 106.739 41.168C106.315 41.168 105.923 41.096 105.563 40.952C105.211 40.8 104.907 40.588 104.651 40.316C104.395 40.044 104.195 39.72 104.051 39.344C103.907 38.968 103.835 38.552 103.835 38.096V37.808C103.835 37.392 103.907 37.004 104.051 36.644C104.203 36.284 104.411 35.976 104.675 35.72C104.939 35.456 105.247 35.252 105.599 35.108C105.959 34.956 106.347 34.88 106.763 34.88C107.251 34.88 107.671 34.972 108.023 35.156C108.383 35.332 108.675 35.552 108.899 35.816C109.131 36.08 109.299 36.368 109.403 36.68C109.515 36.992 109.571 37.28 109.571 37.544V38.312H104.771ZM106.763 35.768C106.499 35.768 106.251 35.812 106.019 35.9C105.795 35.98 105.595 36.096 105.419 36.248C105.251 36.4 105.111 36.58 104.999 36.788C104.895 36.988 104.827 37.208 104.795 37.448H108.635C108.619 37.192 108.555 36.96 108.443 36.752C108.339 36.544 108.199 36.368 108.023 36.224C107.855 36.08 107.659 35.968 107.435 35.888C107.219 35.808 106.995 35.768 106.763 35.768ZM111.435 40.136H113.595V33.464H111.507V32.6H114.531V40.136H116.691V41H111.435V40.136ZM123.102 39.992H122.958C122.766 40.392 122.498 40.688 122.154 40.88C121.818 41.072 121.462 41.168 121.086 41.168C120.694 41.168 120.33 41.104 119.994 40.976C119.658 40.84 119.362 40.644 119.106 40.388C118.858 40.124 118.662 39.804 118.518 39.428C118.374 39.052 118.302 38.616 118.302 38.12V37.928C118.302 37.44 118.374 37.008 118.518 36.632C118.662 36.256 118.858 35.94 119.106 35.684C119.362 35.42 119.658 35.22 119.994 35.084C120.33 34.948 120.686 34.88 121.062 34.88C121.47 34.88 121.838 34.972 122.166 35.156C122.502 35.332 122.766 35.608 122.958 35.984H123.102V35.048H124.038V39.776C124.038 40.016 124.146 40.136 124.362 40.136H124.662V41H124.026C123.754 41 123.53 40.912 123.354 40.736C123.186 40.56 123.102 40.336 123.102 40.064V39.992ZM121.182 40.28C121.462 40.28 121.718 40.228 121.95 40.124C122.19 40.02 122.394 39.872 122.562 39.68C122.73 39.488 122.862 39.26 122.958 38.996C123.054 38.724 123.102 38.424 123.102 38.096V37.952C123.102 37.632 123.054 37.34 122.958 37.076C122.862 36.804 122.726 36.572 122.55 36.38C122.382 36.188 122.178 36.04 121.938 35.936C121.706 35.824 121.454 35.768 121.182 35.768C120.902 35.768 120.646 35.82 120.414 35.924C120.182 36.028 119.978 36.176 119.802 36.368C119.634 36.552 119.502 36.78 119.406 37.052C119.31 37.316 119.262 37.608 119.262 37.928V38.12C119.262 38.8 119.438 39.332 119.79 39.716C120.15 40.092 120.614 40.28 121.182 40.28ZM127.066 41H126.13V35.048H127.066V36.056H127.21C127.578 35.272 128.218 34.88 129.13 34.88C129.818 34.88 130.366 35.096 130.774 35.528C131.182 35.952 131.386 36.592 131.386 37.448V41H130.45V37.64C130.45 37.016 130.31 36.548 130.03 36.236C129.75 35.924 129.37 35.768 128.89 35.768C128.322 35.768 127.874 35.964 127.546 36.356C127.226 36.74 127.066 37.256 127.066 37.904V41ZM139.046 38.888C138.982 39.216 138.87 39.52 138.71 39.8C138.558 40.08 138.362 40.324 138.122 40.532C137.882 40.732 137.602 40.888 137.282 41C136.962 41.112 136.606 41.168 136.214 41.168C135.798 41.168 135.402 41.1 135.026 40.964C134.658 40.828 134.334 40.632 134.054 40.376C133.774 40.112 133.55 39.792 133.382 39.416C133.222 39.04 133.142 38.608 133.142 38.12V37.976C133.142 37.496 133.222 37.064 133.382 36.68C133.55 36.296 133.774 35.972 134.054 35.708C134.334 35.444 134.658 35.24 135.026 35.096C135.402 34.952 135.798 34.88 136.214 34.88C136.59 34.88 136.938 34.936 137.258 35.048C137.578 35.16 137.858 35.32 138.098 35.528C138.346 35.728 138.546 35.968 138.698 36.248C138.858 36.528 138.966 36.832 139.022 37.16L138.086 37.376C138.062 37.168 138.002 36.968 137.906 36.776C137.818 36.576 137.694 36.404 137.534 36.26C137.382 36.108 137.194 35.988 136.97 35.9C136.746 35.812 136.486 35.768 136.19 35.768C135.902 35.768 135.63 35.824 135.374 35.936C135.126 36.04 134.906 36.192 134.714 36.392C134.522 36.584 134.37 36.816 134.258 37.088C134.154 37.36 134.102 37.656 134.102 37.976V38.12C134.102 38.456 134.154 38.76 134.258 39.032C134.37 39.296 134.522 39.52 134.714 39.704C134.906 39.888 135.13 40.032 135.386 40.136C135.642 40.232 135.918 40.28 136.214 40.28C136.51 40.28 136.766 40.236 136.982 40.148C137.206 40.052 137.394 39.932 137.546 39.788C137.706 39.636 137.83 39.464 137.918 39.272C138.014 39.08 138.078 38.88 138.11 38.672L139.046 38.888ZM141.509 38.312C141.533 38.904 141.717 39.38 142.061 39.74C142.405 40.1 142.885 40.28 143.501 40.28C143.781 40.28 144.025 40.248 144.233 40.184C144.441 40.12 144.617 40.032 144.761 39.92C144.913 39.808 145.033 39.68 145.121 39.536C145.217 39.384 145.293 39.224 145.349 39.056L146.237 39.296C146.069 39.848 145.757 40.3 145.301 40.652C144.853 40.996 144.245 41.168 143.477 41.168C143.053 41.168 142.661 41.096 142.301 40.952C141.949 40.8 141.645 40.588 141.389 40.316C141.133 40.044 140.933 39.72 140.789 39.344C140.645 38.968 140.573 38.552 140.573 38.096V37.808C140.573 37.392 140.645 37.004 140.789 36.644C140.941 36.284 141.149 35.976 141.413 35.72C141.677 35.456 141.985 35.252 142.337 35.108C142.697 34.956 143.085 34.88 143.501 34.88C143.989 34.88 144.409 34.972 144.761 35.156C145.121 35.332 145.413 35.552 145.637 35.816C145.869 36.08 146.037 36.368 146.141 36.68C146.253 36.992 146.309 37.28 146.309 37.544V38.312H141.509ZM143.501 35.768C143.237 35.768 142.989 35.812 142.757 35.9C142.533 35.98 142.333 36.096 142.157 36.248C141.989 36.4 141.849 36.58 141.737 36.788C141.633 36.988 141.565 37.208 141.533 37.448H145.373C145.357 37.192 145.293 36.96 145.181 36.752C145.077 36.544 144.937 36.368 144.761 36.224C144.593 36.08 144.397 35.968 144.173 35.888C143.957 35.808 143.733 35.768 143.501 35.768ZM147.837 35.048H149.997V35.84H150.141C150.293 35.512 150.509 35.272 150.789 35.12C151.069 34.96 151.389 34.88 151.749 34.88C152.349 34.88 152.833 35.076 153.201 35.468C153.569 35.86 153.765 36.432 153.789 37.184L152.805 37.328C152.805 36.776 152.673 36.38 152.409 36.14C152.145 35.892 151.821 35.768 151.437 35.768C151.189 35.768 150.973 35.816 150.789 35.912C150.613 36.008 150.465 36.14 150.345 36.308C150.225 36.476 150.137 36.672 150.081 36.896C150.025 37.12 149.997 37.36 149.997 37.616V40.136H151.509V41H147.693V40.136H149.061V35.912H147.837V35.048Z" fill="white"/>
<defs>
<linearGradient id="paint0_linear_10_25" x1="118" y1="0" x2="118" y2="36" gradientUnits="userSpaceOnUse">
<stop offset="0.15625" stop-color="#DB2777"/>
<stop offset="0.838542" stop-color="#FBBF24"/>
</linearGradient>
<radialGradient id="paint1_radial_10_25" cx="0" cy="0" r="1" gradientUnits="userSpaceOnUse" gradientTransform="translate(118 18) rotate(90) scale(18 118)">
<stop offset="0.0625" stop-color="#DB2777"/>
<stop offset="0.84375" stop-color="#FBBF24"/>
</radialGradient>
</defs>
</svg>
